<svg width="300" height="300" viewBox="0 0 300 300" fill="none" xmlns="http://www.w3.org/2000/svg">
<rect width="300" height="300" fill="#0B0B0B"/>
<path d="M86.7306 84.6C90.5173 84.6 93.6373 85.7467 96.0906 88.04C98.5973 90.28 99.8506 93.24 99.8506 96.92C99.8506 99.6933 99.104 102.12 97.6106 104.2C96.1706 106.28 94.3306 107.72 92.0906 108.52V108.76C94.6506 109.613 96.7573 111.187 98.4106 113.48C100.117 115.773 100.971 118.493 100.971 121.64C100.971 124.36 100.331 126.733 99.0506 128.76C97.7706 130.787 96.0373 132.333 93.8506 133.4C91.7173 134.467 89.344 135 86.7306 135H67.6106V84.6H86.7306ZM84.8906 106.2C87.2906 106.2 89.2373 105.427 90.7306 103.88C92.224 102.333 92.9706 100.467 92.9706 98.28C92.9706 95.72 92.2773 93.7733 90.8906 92.44C89.5573 91.1067 87.7173 90.44 85.3706 90.44H74.0906V106.2H84.8906ZM85.9306 129.08C88.384 129.08 90.384 128.36 91.9306 126.92C93.4773 125.427 94.2506 123.373 94.2506 120.76C94.2506 118.413 93.424 116.387 91.7706 114.68C90.1706 112.973 88.064 112.12 85.4506 112.12H74.0906V129.08H85.9306ZM126.565 83.64C132.912 83.64 137.818 85.8533 141.285 90.28C144.752 94.6533 146.485 101.16 146.485 109.8C146.485 118.387 144.725 124.893 141.205 129.32C137.738 133.693 132.858 135.88 126.565 135.88C120.272 135.88 115.392 133.693 111.925 129.32C108.458 124.893 106.725 118.387 106.725 109.8C106.725 101.16 108.458 94.6533 111.925 90.28C115.392 85.8533 120.272 83.64 126.565 83.64ZM126.565 89.64C122.458 89.64 119.258 91.1867 116.965 94.28C114.672 97.3733 113.525 101.933 113.525 107.96V111.64C113.525 117.667 114.672 122.227 116.965 125.32C119.258 128.413 122.458 129.96 126.565 129.96C130.672 129.96 133.872 128.413 136.165 125.32C138.512 122.227 139.685 117.667 139.685 111.64V107.96C139.685 101.933 138.512 97.3733 136.165 94.28C133.872 91.1867 130.672 89.64 126.565 89.64ZM188.398 118.6C188.398 124.2 186.931 128.493 183.998 131.48C181.118 134.413 177.065 135.88 171.838 135.88C166.558 135.88 162.451 134.413 159.518 131.48C156.638 128.493 155.198 124.2 155.198 118.6V84.6H161.758V118.92C161.758 122.493 162.638 125.24 164.398 127.16C166.158 129.027 168.638 129.96 171.838 129.96C175.091 129.96 177.598 129.027 179.358 127.16C181.118 125.24 181.998 122.493 181.998 118.92V84.6H188.398V118.6ZM226.634 135L207.754 102.92C207.22 102.013 206.58 100.787 205.834 99.24C205.14 97.64 204.687 96.5733 204.474 96.04L204.234 96.12C204.287 96.6533 204.34 97.6133 204.394 99C204.5 100.333 204.554 101.64 204.554 102.92V135H198.714V84.6H204.314L223.034 116.28C223.514 117.08 224.1 118.28 224.794 119.88C225.54 121.427 226.02 122.467 226.234 123L226.394 122.92L226.234 116.28V84.6H231.914V135H226.634ZM84.9694 175.4C88.436 175.4 91.156 176.413 93.1294 178.44C95.1027 180.467 96.0894 183 96.0894 186.04L96.0094 187.48H89.7694V186.76C89.7694 185.053 89.3427 183.64 88.4894 182.52C87.636 181.347 86.276 180.76 84.4094 180.76C82.4894 180.76 81.1294 181.293 80.3294 182.36C79.5827 183.427 79.2094 184.653 79.2094 186.04C79.2094 187.64 79.7694 188.867 80.8894 189.72C82.0627 190.52 83.8494 191.32 86.2494 192.12C88.436 192.867 90.2227 193.64 91.6094 194.44C93.0494 195.187 94.276 196.333 95.2894 197.88C96.3027 199.427 96.8094 201.453 96.8094 203.96C96.8094 207.96 95.6894 210.947 93.4494 212.92C91.2094 214.893 88.2227 215.88 84.4894 215.88C80.3294 215.88 77.2094 214.787 75.1294 212.6C73.0494 210.413 72.0094 207.72 72.0094 204.52C72.0094 203.933 72.0094 203.533 72.0094 203.32C72.0627 203.107 72.0894 202.973 72.0894 202.92H78.4094V203.72C78.4094 206.013 78.996 207.747 80.1694 208.92C81.3427 210.04 82.8627 210.6 84.7294 210.6C86.3827 210.6 87.7694 210.093 88.8894 209.08C90.0094 208.067 90.5694 206.653 90.5694 204.84C90.5694 203.453 90.2227 202.333 89.5294 201.48C88.8894 200.573 88.0627 199.88 87.0494 199.4C86.0894 198.867 84.7294 198.28 82.9694 197.64C80.7827 196.84 79.0227 196.093 77.6894 195.4C76.4094 194.653 75.2894 193.56 74.3294 192.12C73.4227 190.68 72.9694 188.787 72.9694 186.44C72.9694 183.027 74.036 180.333 76.1694 178.36C78.356 176.387 81.2894 175.4 84.9694 175.4ZM115.208 181.72H110.088V207C110.088 208.12 110.381 209 110.968 209.64C111.554 210.227 112.408 210.52 113.528 210.52H115.208V214.68C114.728 215 114.088 215.24 113.288 215.4C112.488 215.613 111.688 215.72 110.888 215.72C108.488 215.72 106.728 214.867 105.608 213.16C104.541 211.453 104.008 209.347 104.008 206.84V181.72H100.648V176.28H104.008L105.368 165.56H110.088V176.28H115.208V181.72ZM140.244 210.52H139.764C137.844 214.093 134.751 215.88 130.484 215.88C124.084 215.88 120.884 211.987 120.884 204.2V176.28H126.964V203.8C126.964 206.307 127.418 208.067 128.324 209.08C129.284 210.04 130.644 210.52 132.404 210.52C134.378 210.52 136.058 209.56 137.444 207.64C138.884 205.72 139.604 203.16 139.604 199.96V176.28H145.604V215H141.044L140.244 210.52ZM173.76 210.52H173.36C172.453 212.28 171.253 213.613 169.76 214.52C168.32 215.427 166.693 215.88 164.88 215.88C161.093 215.88 158.133 214.227 156 210.92C153.92 207.56 152.88 202.467 152.88 195.64C152.88 188.92 153.947 183.88 156.08 180.52C158.267 177.107 161.067 175.4 164.48 175.4C166.347 175.4 168 175.827 169.44 176.68C170.933 177.48 172.027 178.573 172.72 179.96H173.12V161.8H179.12V215H174.56L173.76 210.52ZM166.16 180.84C163.813 180.84 162.053 181.907 160.88 184.04C159.76 186.12 159.2 189.533 159.2 194.28V197C159.2 201.747 159.76 205.187 160.88 207.32C162.053 209.453 163.813 210.52 166.16 210.52C170.8 210.52 173.12 206.013 173.12 197V194.52C173.12 185.4 170.8 180.84 166.16 180.84ZM187.196 161.8H193.276V169.08H187.196V161.8ZM187.196 176.28H193.276V215H187.196V176.28ZM213.675 175.4C222.902 175.4 227.515 182.173 227.515 195.72C227.515 209.16 222.902 215.88 213.675 215.88C204.395 215.88 199.755 209.16 199.755 195.72C199.755 182.173 204.395 175.4 213.675 175.4ZM213.675 180.84C208.608 180.84 206.075 185.32 206.075 194.28V197C206.075 206.013 208.608 210.52 213.675 210.52C218.688 210.52 221.195 206.013 221.195 197V194.28C221.195 189.853 220.555 186.52 219.275 184.28C218.048 181.987 216.182 180.84 213.675 180.84Z" fill="white"/>
</svg>
