<?xml version="1.0" encoding="utf-8"?>
<!-- Generator: Adobe Illustrator 28.3.0, SVG Export Plug-In . SVG Version: 6.00 Build 0)  -->
<svg version="1.1" id="Layer_1" xmlns="http://www.w3.org/2000/svg" xmlns:xlink="http://www.w3.org/1999/xlink" x="0px" y="0px"
	 viewBox="0 0 971.6 153.4" style="enable-background:new 0 0 971.6 153.4;" xml:space="preserve">
<style type="text/css">
	.st0{enable-background:new    ;}
</style>
<g class="st0">
	<path d="M7.3,24.5h47.3c24.2,0,37.8,12.6,37.8,32.5c0,7.8-5.2,16.6-12.7,19.4c10.4,3.3,17.8,13.5,17.8,24c0,20.2-14.4,33-38.9,33
		H7.3V24.5z M53.5,68.6c9.2,0,14.6-4,14.6-11.6c0-7.6-5.3-11.8-14.6-11.8H31.6v23.4H53.5z M57.5,112.7c9.6,0,15.6-4.3,15.6-12.3
		c0-8-6-12.3-15.6-12.3H31.6v24.6H57.5z"/>
	<path d="M107,78.9c0-33,25-57.2,58.8-57.2c33.8,0,58.8,24.2,58.8,57.2c0,33-25,57.2-58.8,57.2C131.9,136.1,107,111.9,107,78.9z
		 M200.2,78.9c0-20.6-14.7-35.3-34.5-35.3c-19.8,0-34.5,14.7-34.5,35.3c0,20.4,14.7,35.3,34.5,35.3
		C185.5,114.2,200.2,99.3,200.2,78.9z"/>
	<path d="M237.6,24.5h24.3v60.7c0,17.4,9.6,29,25.5,29s25.5-11.6,25.5-29V24.5h24.3v60.7c0,30.9-19.9,50.9-49.8,50.9
		s-49.8-20-49.8-50.9V24.5z"/>
	<path d="M355.2,24.5h20.3L429.9,90V23.2h24.3v108.9h-20.3l-54.4-65.5v66.8h-24.3V24.5z"/>
</g>
<g class="st0">
	<path d="M578.7,78.6h-23c-0.8-4.8-6.3-7.7-13.2-7.7c-7.2,0-12.4,2.5-12.4,6c0,3.9,5.2,5.7,18.6,7.9c23.1,3.5,31.4,11.1,31.4,24.6
		c0,16-16.8,25.9-36.7,25.9c-20.4,0-35.9-10.2-36.7-26.6h23c0.8,5.1,6.7,8.4,14.2,8.4c7.6,0,13.2-2.8,13.2-6.4
		c0-3.7-5.3-6.1-18.8-8.2c-18.7-2.8-31-8.6-31-24.4c0-15.2,15.9-24.9,35.8-24.9C562.4,53.2,577.8,63.1,578.7,78.6z"/>
</g>
<g class="st0">
	<path d="M641.2,75.6h-15.5v57.9H602V75.6h-15.5V55.1H602V31.9h23.8v23.2h15.5V75.6z"/>
	<path d="M651.1,100.4V55.1h23.8v41.3c0,11.9,4.8,18.4,13.8,18.4c9.4,0,15-7.3,15-19.5V55.1h23.8v78.3h-23.8v-8
		c-4.7,6.3-11.9,9.9-21.9,9.9C663.6,135.3,651.1,122,651.1,100.4z"/>
	<path d="M741.3,94.3c0-23.8,15.6-41,38.1-41c10.3,0,17.8,3.6,22.4,9.9v-42h23.8v112.2h-23.8v-8c-4.7,6.3-12.2,9.9-22.4,9.9
		C757,135.3,741.3,118,741.3,94.3z M802.2,94.3c0-12-7.5-20.7-19.1-20.7c-11.4,0-18.6,8.7-18.6,20.7c0,12,7.2,20.7,18.6,20.7
		C794.8,115,802.2,106.3,802.2,94.3z"/>
	<path d="M870,31.9c0,8.4-6.1,14.6-14.6,14.6c-8.4,0-14.6-6.1-14.6-14.6c0-8.4,6.1-14.6,14.6-14.6C863.8,17.3,870,23.4,870,31.9z
		 M867.3,133.7h-23.8V55.1h23.8V133.7z"/>
	<path d="M964.3,94.3c0,23.8-17.4,41-41.6,41s-41.6-17.2-41.6-41c0-23.8,17.4-41,41.6-41S964.3,70.5,964.3,94.3z M904.2,94.3
		c0,12,7.3,20.7,18.6,20.7s18.6-8.7,18.6-20.7c0-12-7.3-20.7-18.6-20.7S904.2,82.2,904.2,94.3z"/>
</g>
</svg>
